Coordinates
version=1
nRows=16
nColumns=40
inDegrees=yes

Units are S.I. units (second, meters, Newtons, ...)
Angles are in degrees.

endheader
time	pelvis_tilt	pelvis_list	pelvis_rotation	pelvis_tx	pelvis_ty	pelvis_tz	hip_flexion_r	hip_adduction_r	hip_rotation_r	knee_angle_r	knee_angle_r_beta	ankle_angle_r	subtalar_angle_r	mtp_angle_r	hip_flexion_l	hip_adduction_l	hip_rotation_l	knee_angle_l	knee_angle_l_beta	ankle_angle_l	subtalar_angle_l	mtp_angle_l	lumbar_extension	lumbar_bending	lumbar_rotation	arm_flex_r	arm_add_r	arm_rot_r	elbow_flex_r	pro_sup_r	wrist_flex_r	wrist_dev_r	arm_flex_l	arm_add_l	arm_rot_l	elbow_flex_l	pro_sup_l	wrist_flex_l	wrist_dev_l
     56.42500000	     -5.14564377	     -5.07117925	     -3.80482251	      1.04019225	      0.93372464	      0.45143903	     35.40328696	     -5.65083081	     -7.82080400	     58.48987270	     58.48987270	     -0.27859950	    -10.16333272	     -2.35289101	     11.97295488	     -6.45786698	     -9.67095295	     19.66774858	     19.66774858	     14.65681475	     -7.51968065	     -1.54679931	    -11.57120174	      4.63834407	      2.12415833	      2.33741481	    -13.58289755	     -1.94034242	     38.26734429	     46.41633353	      0.00000000	      0.00000000	     12.65352755	    -19.29316081	      4.66721644	     74.49960764	     46.73563751	      0.00000000	      0.00000000
     56.43685714	     -5.14550789	     -5.06489468	     -4.09043783	      1.03957737	      0.93393618	      0.45161451	     35.75128375	     -5.26365233	     -7.73368608	     55.33866666	     55.33866666	     -0.20732891	     -8.88734536	     -2.20945225	     10.92322122	     -6.35885350	     -9.95414913	     18.82774945	     18.82774945	     14.89389900	     -7.34776444	     -1.63023484	    -11.69741484	      4.67061208	      2.35772251	      0.58691594	    -13.87628785	     -1.90741258	     36.81257920	     46.45041044	      0.00000000	      0.00000000	     14.09533147	    -19.16560490	      4.13907059	     76.11881288	     46.81732387	      0.00000000	      0.00000000
     56.44871429	     -5.14405879	     -4.94802793	     -4.39359267	      1.03910805	      0.93397110	      0.45188745	     35.98143457	     -4.93599486	     -7.53013012	     51.93700765	     51.93700765	     -0.14437508	     -7.59707776	     -2.15793344	      9.81425600	     -6.12399835	    -10.27186172	     17.88623801	     17.88623801	     15.00592104	     -7.14833159	     -1.92346610	    -11.80442376	      4.55684414	      2.49265789	     -0.96636623	    -14.01324176	     -1.98824207	     34.91488291	     46.50747255	      0.00000000	      0.00000000	     15.42373026	    -19.22031972	      3.67540540	     78.08374946	     46.90479089	      0.00000000	      0.00000000
     56.46057143	     -5.11814532	     -4.87164402	     -4.64431818	      1.03888949	      0.93397093	      0.45217632	     35.91324596	     -4.58513835	     -7.46634022	     48.12571648	     48.12571648	     -0.01856281	     -6.30264757	     -1.98172983	      8.66479414	     -5.92502796	    -10.59493372	     16.93459899	     16.93459899	     15.14991372	     -6.91651230	     -2.16819983	    -11.87354307	      4.52010014	      2.51849990	     -2.49693842	    -14.21748002	     -2.09639598	     33.40901599	     46.55563119	      0.00000000	      0.00000000	     16.56928804	    -19.21282849	      3.28274504	     79.87776066	     46.97759602	      0.00000000	      0.00000000
     56.47242857	     -5.16467862	     -4.62913153	     -4.93694145	      1.03885714	      0.93360373	      0.45256814	     35.79854238	     -4.35285260	     -7.32975428	     44.10616982	     44.10616982	     -0.03047224	     -5.04221044	     -2.34676777	      7.49389418	     -5.52084188	    -10.96746195	     15.75276490	     15.75276490	     14.84023643	     -6.84487555	     -3.24727841	    -11.83769975	      4.26650082	      2.14389012	     -3.38985213	    -14.09660470	     -2.81958404	     30.86513627	     46.67607224	      0.00000000	      0.00000000	     17.10419553	    -19.64239621	      2.64519290	     82.71350149	     47.10936051	      0.00000000	      0.00000000
     56.48428571	     -5.35654146	     -4.16292917	     -5.10812587	      1.03865476	      0.93245864	      0.45298608	     35.87807157	     -4.26733896	     -6.97264037	     40.18882293	     40.18882293	      0.30482844	     -4.17038088	     -1.87961174	      6.97898195	     -4.97551243	    -11.20474881	     15.48962072	     15.48962072	     15.19840071	     -6.75128212	     -3.47890378	    -11.56244978	      3.77864826	      1.62876568	     -4.84751844	    -14.24787589	     -2.87901270	     30.24894156	     46.69118964	      0.00000000	      0.00000000	     18.25261188	    -20.15679890	      2.17989354	     83.48430883	     47.16012033	      0.00000000	      0.00000000
     56.49614286	     -5.01288377	     -4.25121034	     -5.39688842	      1.03941792	      0.93271572	      0.45370242	     34.70545403	     -3.78564287	     -7.47542824	     35.48065879	     35.48065879	      0.46672494	     -2.20183678	     -1.36372218	      4.95588437	     -4.84542957	    -11.73844153	     13.67941222	     13.67941222	     15.24912676	     -5.95420487	     -3.75644711	    -12.03885276	      3.90582290	      2.28461766	     -6.67316139	    -14.41085877	     -3.18410302	     29.00871468	     46.74036781	      0.00000000	      0.00000000	     19.34081187	    -19.67379013	      1.68659889	     86.41837372	     47.26275799	      0.00000000	      0.00000000
     56.50800000	     -4.93460144	     -3.99528932	     -5.56438055	      1.04007877	      0.93177942	      0.45437468	     33.97241461	     -3.58932948	     -7.81681489	     31.18367461	     31.18367461	      0.91423382	     -0.67069803	     -0.47281808	      3.63324339	     -4.40522244	    -12.01255388	     12.49895457	     12.49895457	     14.86521038	     -5.74468554	     -5.34101748	    -12.10743136	      3.62055274	      1.72028071	     -7.66012924	    -14.33716662	     -4.84709424	     27.93783655	     46.86019274	      0.00000000	      0.00000000	     19.35283260	    -20.15905037	      0.63218408	     89.70690740	     47.44973627	      0.00000000	      0.00000000
     56.51985714	     -4.86556189	     -3.78294405	     -5.70631913	      1.04086436	      0.93068973	      0.45519612	     33.07045706	     -3.29845684	     -8.28258847	     26.84680445	     26.84680445	      1.11801460	      0.74552959	      0.57204574	      2.43556940	     -4.05494055	    -12.34723241	     11.60500217	     11.60500217	     15.15734571	     -5.25959479	     -5.50567607	    -12.10791227	      3.43649335	      1.74575351	     -9.30913313	    -14.49686576	     -5.02702918	     27.30338297	     46.87895450	      0.00000000	      0.00000000	     20.38262001	    -20.07253073	      0.34635020	     91.26167359	     47.50845148	      0.00000000	      0.00000000
     56.53171429	     -4.68557458	     -3.46172974	     -5.86525196	      1.04190902	      0.92938125	      0.45610076	     32.27576371	     -3.20232896	     -8.98746019	     23.35576185	     23.35576185	      2.42150776	      2.74641414	      4.59734077	      1.04539075	     -3.56466465	    -12.79711193	     10.57337484	     10.57337484	     15.22425133	     -4.61587466	     -6.31935312	    -12.27171850	      3.07012391	      1.66682474	    -10.94451523	    -14.43897455	     -6.74872231	     27.40471968	     46.93011037	      0.00000000	      0.00000000	     20.90457316	    -20.24676586	     -0.17283594	     94.07349488	     47.67848484	      0.00000000	      0.00000000
     56.54357143	     -4.61962703	     -3.21006286	     -5.95674304	      1.04301887	      0.92767953	      0.45721604	     31.41023744	     -2.92770859	     -9.67562305	     19.84755429	     19.84755429	      2.46645649	      3.97295180	      5.69097334	     -0.01157485	     -3.20832106	    -13.01643312	      9.96666944	      9.96666944	     15.63319869	     -4.23510194	     -6.47926784	    -12.18540515	      2.79998200	      1.69129827	    -12.38364684	    -14.49793340	     -6.86424163	     26.93704142	     46.93953143	      0.00000000	      0.00000000	     21.81610586	    -20.25237736	     -0.32938729	     95.50403880	     47.72806062	      0.00000000	      0.00000000
     56.55542857	     -4.44546400	     -2.94363783	     -6.02562377	      1.04437887	      0.92588859	      0.45837577	     30.56620298	     -2.72327410	    -10.55061295	     17.07409944	     17.07409944	      2.55247665	      5.19943472	      6.90794445	     -1.17522810	     -2.83527198	    -13.25143984	      9.41073295	      9.41073295	     16.06521045	     -3.75378543	     -6.65517070	    -12.20939066	      2.49169559	      1.79758643	    -13.85759872	    -14.56116278	     -7.02919525	     26.64464846	     46.94446231	      0.00000000	      0.00000000	     22.61659957	    -20.26281953	     -0.44839577	     97.27079607	     47.78046452	      0.00000000	      0.00000000
     56.56728571	     -4.24201327	     -2.74445570	     -6.09076938	      1.04585438	      0.92404089	      0.45968917	     29.96400266	     -2.58852166	    -11.75489335	     15.41498156	     15.41498156	      3.50289359	      6.92953551	     10.28035190	     -2.35393502	     -2.57734629	    -13.71070635	      8.93619858	      8.93619858	     16.71273141	     -2.79680758	     -6.69979612	    -12.39035584	      2.27843769	      1.64120486	    -15.50101217	    -14.61191026	     -7.89213973	     27.62425967	     46.91957193	      0.00000000	      0.00000000	     22.78868728	    -20.57665140	     -0.49737390	    100.26896491	     47.88239841	      0.00000000	      0.00000000
     56.57914286	     -4.18576317	     -2.64771880	     -6.13239404	      1.04726429	      0.92193188	      0.46127509	     29.40899042	     -2.20937071	    -12.42118816	     13.93390486	     13.93390486	      3.28104831	      7.38353595	     10.94939958	     -3.15788994	     -2.48286555	    -13.74748620	      8.86663563	      8.86663563	     17.27166525	     -2.72157877	     -6.77373616	    -12.28825527	      2.16767692	      1.76634598	    -16.69453516	    -14.57478321	     -7.96851057	     27.30844630	     46.92133016	      0.00000000	      0.00000000	     23.53462469	    -20.45809931	     -0.70564780	    101.50407404	     47.92996984	      0.00000000	      0.00000000
     56.59100000	     -4.07963504	     -2.61555019	     -6.14741440	      1.04885558	      0.91990542	      0.46293414	     28.94082528	     -1.89253612	    -13.23291964	     13.23297127	     13.23297127	      3.04838539	      7.97271047	     11.42620391	     -4.00902042	     -2.48692194	    -13.90072188	      8.86888804	      8.86888804	     18.02705611	     -2.27367643	     -6.54609304	    -12.29437833	      2.14333264	      1.88264519	    -17.90824390	    -14.55766781	     -8.23247009	     27.43323257	     46.90947029	      0.00000000	      0.00000000	     23.86790385	    -20.35796492	     -0.71640727	    103.42656900	     47.98932791	      0.00000000	      0.00000000
     56.60285714	     -4.05047043	     -2.66420073	     -6.13421119	      1.05041416	      0.91787429	      0.46469763	     28.56173993	     -1.51633399	    -13.75462121	     12.94759513	     12.94759513	      2.58862704	      8.04438888	     11.35307747	     -4.63700204	     -2.62573498	    -13.97779195	      9.12704776	      9.12704776	     18.72272838	     -2.24267188	     -6.42854905	    -12.21418729	      2.26457881	      2.00786250	    -18.82292887	    -14.45786896	     -8.32588426	     27.34670328	     46.90394009	      0.00000000	      0.00000000	     24.28169520	    -20.17277762	     -0.79008030	    104.85523408	     48.03430184	      0.00000000	      0.00000000
